# OBJ file converted from STL
# Original file: base_link.STL
# Vertices: 121
# Faces: 238
# Generated by convert_meshes_stl_to_obj.py

v 0.233500 -0.260000 0.080000
v 0.293500 -0.260000 0.080000
v 0.293500 -0.297000 0.080000
v 0.293500 0.297000 0.080000
v 0.293500 0.260000 0.080000
v 0.233500 0.260000 0.080000
v 0.293500 0.100000 0.080000
v 0.293500 -0.100000 0.080000
v 0.233500 0.100000 0.080000
v 0.233500 -0.100000 0.080000
v -0.293500 0.297000 0.080000
v -0.233500 0.260000 0.080000
v -0.293500 0.260000 0.080000
v -0.293500 -0.297000 0.080000
v -0.293500 -0.260000 0.080000
v -0.233500 -0.260000 0.080000
v -0.233500 -0.100000 0.080000
v -0.293500 -0.100000 0.080000
v -0.293500 0.100000 0.080000
v -0.233500 0.100000 0.080000
v 0.293500 -0.256085 0.104721
v 0.293500 0.115279 0.127023
v 0.293500 -0.115279 0.127023
v 0.293500 -0.103915 0.104721
v 0.293500 -0.227023 0.144721
v 0.293500 -0.204721 0.156085
v 0.293500 -0.297000 0.216000
v 0.293500 0.103915 0.104721
v 0.293500 -0.244721 0.127023
v 0.293500 -0.180000 0.160000
v 0.293500 -0.155279 0.156085
v 0.293500 0.297000 0.216000
v 0.293500 -0.132977 0.144721
v 0.293500 0.132977 0.144721
v 0.293500 0.155279 0.156085
v 0.293500 0.180000 0.160000
v 0.293500 0.204721 0.156085
v 0.293500 0.227023 0.144721
v 0.293500 0.244721 0.127023
v 0.293500 0.256085 0.104721
v -0.293500 0.297000 0.216000
v -0.293500 0.227023 0.144721
v -0.293500 0.204721 0.156085
v -0.293500 -0.103915 0.104721
v -0.293500 -0.115279 0.127023
v -0.293500 -0.204721 0.156085
v -0.293500 -0.227023 0.144721
v -0.293500 -0.297000 0.216000
v -0.293500 -0.244721 0.127023
v -0.293500 -0.256085 0.104721
v -0.293500 0.256085 0.104721
v -0.293500 0.103915 0.104721
v -0.293500 0.115279 0.127023
v -0.293500 0.180000 0.160000
v -0.293500 0.155279 0.156085
v -0.293500 0.132977 0.144721
v -0.293500 -0.132977 0.144721
v -0.293500 -0.155279 0.156085
v -0.293500 -0.180000 0.160000
v -0.293500 0.244721 0.127023
v 0.060000 0.118990 0.216000
v 0.065490 0.113500 0.216000
v 0.067500 0.106000 0.216000
v 0.065490 0.098500 0.216000
v 0.037500 0.106000 0.216000
v 0.039510 0.098500 0.216000
v 0.060000 0.093010 0.216000
v 0.052500 0.091000 0.216000
v 0.045000 0.093010 0.216000
v 0.039510 0.113500 0.216000
v 0.045000 0.118990 0.216000
v 0.052500 0.121000 0.216000
v 0.039510 0.113500 0.516000
v 0.045000 0.118990 0.516000
v 0.052500 0.121000 0.516000
v 0.060000 0.118990 0.516000
v 0.065490 0.113500 0.516000
v 0.067500 0.106000 0.516000
v 0.065490 0.098500 0.516000
v 0.060000 0.093010 0.516000
v 0.052500 0.091000 0.516000
v 0.045000 0.093010 0.516000
v 0.039510 0.098500 0.516000
v 0.037500 0.106000 0.516000
v 0.052500 0.106000 0.516000
v 0.233500 -0.103915 0.104721
v 0.233500 -0.115279 0.127023
v 0.233500 -0.132977 0.144721
v 0.233500 -0.155279 0.156085
v 0.233500 -0.180000 0.160000
v 0.233500 -0.204721 0.156085
v 0.233500 -0.227023 0.144721
v 0.233500 -0.244721 0.127023
v 0.233500 -0.256085 0.104721
v 0.233500 0.256085 0.104721
v 0.233500 0.244721 0.127023
v 0.233500 0.227023 0.144721
v 0.233500 0.204721 0.156085
v 0.233500 0.180000 0.160000
v 0.233500 0.155279 0.156085
v 0.233500 0.132977 0.144721
v 0.233500 0.115279 0.127023
v 0.233500 0.103915 0.104721
v -0.233500 -0.256085 0.104721
v -0.233500 -0.244721 0.127023
v -0.233500 -0.227023 0.144721
v -0.233500 -0.204721 0.156085
v -0.233500 -0.180000 0.160000
v -0.233500 -0.155279 0.156085
v -0.233500 -0.132977 0.144721
v -0.233500 -0.115279 0.127023
v -0.233500 -0.103915 0.104721
v -0.233500 0.103915 0.104721
v -0.233500 0.115279 0.127023
v -0.233500 0.132977 0.144721
v -0.233500 0.155279 0.156085
v -0.233500 0.180000 0.160000
v -0.233500 0.204721 0.156085
v -0.233500 0.227023 0.144721
v -0.233500 0.244721 0.127023
v -0.233500 0.256085 0.104721

f 1 2 3
f 4 5 6
f 7 8 9
f 9 8 10
f 4 6 11
f 11 6 12
f 11 12 13
f 14 15 16
f 3 14 1
f 1 14 16
f 1 16 10
f 10 16 17
f 18 19 17
f 17 19 20
f 17 20 10
f 10 20 12
f 10 12 9
f 9 12 6
f 3 2 21
f 22 23 24
f 25 26 27
f 8 7 24
f 24 7 28
f 24 28 22
f 3 21 27
f 27 21 29
f 27 29 25
f 26 30 27
f 27 30 31
f 27 31 32
f 32 31 33
f 32 33 23
f 22 34 23
f 23 34 35
f 23 35 32
f 32 35 36
f 32 36 37
f 37 38 32
f 32 38 39
f 32 39 4
f 4 39 40
f 4 40 5
f 11 41 4
f 4 41 32
f 42 43 41
f 41 44 45
f 46 47 48
f 48 47 49
f 48 49 14
f 14 49 50
f 14 50 15
f 11 13 51
f 19 18 52
f 52 18 44
f 52 44 53
f 43 54 41
f 41 54 55
f 41 55 44
f 44 55 56
f 44 56 53
f 45 57 41
f 41 57 58
f 41 58 48
f 48 58 59
f 48 59 46
f 11 51 41
f 41 51 60
f 41 60 42
f 3 27 14
f 14 27 48
f 61 62 32
f 32 62 63
f 32 63 27
f 27 63 64
f 65 41 66
f 66 41 48
f 64 67 27
f 27 67 68
f 27 68 48
f 48 68 69
f 48 69 66
f 65 70 41
f 41 70 71
f 41 71 32
f 32 71 72
f 32 72 61
f 65 73 70
f 70 73 74
f 70 74 71
f 71 74 75
f 71 75 72
f 72 75 76
f 72 76 61
f 61 76 77
f 61 77 62
f 62 77 78
f 62 78 63
f 63 78 79
f 63 79 64
f 64 79 80
f 64 80 67
f 67 80 81
f 67 81 68
f 68 81 82
f 68 82 69
f 69 82 83
f 69 83 66
f 66 83 84
f 66 84 65
f 65 84 73
f 80 79 85
f 85 79 78
f 85 78 77
f 83 82 85
f 85 82 81
f 85 81 80
f 74 73 85
f 85 73 84
f 85 84 83
f 77 76 85
f 85 76 75
f 85 75 74
f 10 8 86
f 86 8 24
f 86 24 87
f 87 24 23
f 87 23 88
f 88 23 33
f 88 33 89
f 89 33 31
f 89 31 90
f 90 31 30
f 90 30 91
f 91 30 26
f 91 26 92
f 92 26 25
f 92 25 93
f 93 25 29
f 93 29 94
f 94 29 21
f 94 21 1
f 1 21 2
f 10 86 1
f 1 86 87
f 1 87 88
f 89 90 88
f 88 90 91
f 88 91 92
f 92 93 88
f 88 93 94
f 88 94 1
f 6 5 95
f 95 5 40
f 95 40 96
f 96 40 39
f 96 39 97
f 97 39 38
f 97 38 98
f 98 38 37
f 98 37 99
f 99 37 36
f 99 36 100
f 100 36 35
f 100 35 101
f 101 35 34
f 101 34 102
f 102 34 22
f 102 22 103
f 103 22 28
f 103 28 9
f 9 28 7
f 103 9 6
f 100 101 95
f 97 98 99
f 95 101 6
f 6 101 102
f 6 102 103
f 100 95 99
f 99 95 96
f 99 96 97
f 16 15 104
f 104 15 50
f 104 50 105
f 105 50 49
f 105 49 106
f 106 49 47
f 106 47 107
f 107 47 46
f 107 46 108
f 108 46 59
f 108 59 109
f 109 59 58
f 109 58 110
f 110 58 57
f 110 57 111
f 111 57 45
f 111 45 112
f 112 45 44
f 112 44 17
f 17 44 18
f 16 104 17
f 17 104 105
f 17 105 106
f 111 108 110
f 110 108 109
f 106 107 17
f 17 107 108
f 17 108 112
f 112 108 111
f 20 19 113
f 113 19 52
f 113 52 114
f 114 52 53
f 114 53 115
f 115 53 56
f 115 56 116
f 116 56 55
f 116 55 117
f 117 55 54
f 117 54 118
f 118 54 43
f 118 43 119
f 119 43 42
f 119 42 120
f 120 42 60
f 120 60 121
f 121 60 51
f 121 51 12
f 12 51 13
f 20 113 12
f 12 113 114
f 12 114 115
f 120 117 119
f 119 117 118
f 115 116 12
f 12 116 117
f 12 117 121
f 121 117 120
