# OBJ file converted from STL
# Original file: line_link.STL
# Vertices: 48
# Faces: 96
# Generated by convert_meshes_stl_to_obj.py

v 0.040000 0.085000 -0.000000
v 0.008329 0.015391 -0.000000
v 0.012875 0.011852 -0.000000
v 0.040000 -0.085000 -0.000000
v 0.014650 -0.009572 -0.000000
v 0.010749 -0.013810 -0.000000
v 0.016026 0.007030 -0.000000
v 0.017440 0.001445 -0.000000
v 0.016965 -0.004296 -0.000000
v -0.012875 0.011852 -0.000000
v -0.008329 0.015391 -0.000000
v -0.040000 0.085000 -0.000000
v -0.002880 0.017261 -0.000000
v 0.000000 0.017500 -0.000000
v 0.002880 0.017261 -0.000000
v 0.005682 -0.016552 -0.000000
v 0.000000 -0.017500 -0.000000
v -0.040000 -0.085000 -0.000000
v -0.005682 -0.016552 -0.000000
v -0.010749 -0.013810 -0.000000
v -0.014650 -0.009572 -0.000000
v -0.016965 -0.004296 -0.000000
v -0.017440 0.001445 -0.000000
v -0.016026 0.007030 -0.000000
v 0.010749 -0.013810 -0.087000
v 0.014650 -0.009572 -0.087000
v 0.040000 -0.085000 -0.087000
v -0.040000 -0.085000 -0.087000
v -0.040000 0.085000 -0.087000
v -0.017440 0.001445 -0.087000
v -0.016965 -0.004296 -0.087000
v -0.014650 -0.009572 -0.087000
v -0.010749 -0.013810 -0.087000
v -0.005682 -0.016552 -0.087000
v 0.000000 -0.017500 -0.087000
v 0.005682 -0.016552 -0.087000
v 0.012875 0.011852 -0.087000
v 0.008329 0.015391 -0.087000
v 0.040000 0.085000 -0.087000
v 0.016965 -0.004296 -0.087000
v 0.017440 0.001445 -0.087000
v 0.016026 0.007030 -0.087000
v -0.008329 0.015391 -0.087000
v -0.012875 0.011852 -0.087000
v -0.016026 0.007030 -0.087000
v 0.002880 0.017261 -0.087000
v 0.000000 0.017500 -0.087000
v -0.002880 0.017261 -0.087000

f 1 2 3
f 4 5 6
f 3 7 1
f 1 7 8
f 1 8 4
f 4 8 9
f 4 9 5
f 10 11 12
f 11 13 12
f 12 13 14
f 12 14 1
f 1 14 15
f 1 15 2
f 6 16 4
f 4 16 17
f 4 17 18
f 17 19 18
f 18 19 20
f 18 20 21
f 21 22 18
f 18 22 23
f 18 23 12
f 12 23 24
f 12 24 10
f 25 26 27
f 28 29 30
f 30 31 28
f 28 31 32
f 28 32 33
f 33 34 28
f 28 34 35
f 28 35 27
f 27 35 36
f 27 36 25
f 37 38 39
f 26 40 27
f 27 40 41
f 27 41 39
f 39 41 42
f 39 42 37
f 43 44 29
f 29 44 45
f 29 45 30
f 38 46 39
f 39 46 47
f 39 47 29
f 29 47 48
f 29 48 43
f 12 1 29
f 29 1 39
f 18 12 28
f 28 12 29
f 4 18 27
f 27 18 28
f 1 4 39
f 39 4 27
f 17 35 19
f 19 35 34
f 19 34 20
f 20 34 33
f 20 33 21
f 21 33 32
f 21 32 22
f 22 32 31
f 22 31 23
f 23 31 30
f 23 30 24
f 24 30 45
f 24 45 10
f 10 45 44
f 10 44 11
f 11 44 43
f 11 43 13
f 13 43 48
f 13 48 14
f 14 48 47
f 14 47 15
f 15 47 46
f 15 46 2
f 2 46 38
f 2 38 3
f 3 38 37
f 3 37 7
f 7 37 42
f 7 42 8
f 8 42 41
f 8 41 9
f 9 41 40
f 9 40 5
f 5 40 26
f 5 26 6
f 6 26 25
f 6 25 16
f 16 25 36
f 16 36 17
f 17 36 35
