# OBJ file converted from STL
# Original file: link_2.STL
# Vertices: 85
# Faces: 170
# Generated by convert_meshes_stl_to_obj.py

v 0.027536 -0.070184 0.033500
v -0.028463 -0.069813 0.033500
v 0.027536 -0.070184 -0.033500
v -0.028463 -0.069813 -0.033500
v 0.028645 0.097312 0.033500
v 0.028645 0.097312 -0.033500
v 0.010932 0.097430 -0.014158
v 0.014804 0.097404 -0.010286
v -0.027353 0.097683 -0.033500
v -0.013511 0.097592 -0.010286
v -0.009640 0.097566 -0.014158
v -0.004762 0.097534 -0.016643
v 0.000646 0.097498 -0.017500
v 0.006054 0.097462 -0.016643
v -0.009640 0.097566 0.014158
v -0.013511 0.097592 0.010286
v -0.027353 0.097683 0.033500
v -0.015997 0.097608 0.005408
v -0.016854 0.097614 0.000000
v -0.015997 0.097608 -0.005408
v 0.014804 0.097404 0.010286
v 0.010932 0.097430 0.014158
v 0.017289 0.097388 -0.005408
v 0.018146 0.097382 0.000000
v 0.017289 0.097388 0.005408
v 0.006054 0.097462 0.016643
v 0.000646 0.097498 0.017500
v -0.004762 0.097534 0.016643
v 0.000099 0.015000 0.033500
v 0.005224 0.014061 0.033500
v 0.009718 0.011427 0.033500
v -0.005037 0.014129 0.033500
v -0.009565 0.011554 0.033500
v 0.013040 0.007414 0.033500
v 0.014789 0.002507 0.033500
v 0.014755 -0.002703 0.033500
v 0.012940 -0.007586 0.033500
v 0.009565 -0.011554 0.033500
v 0.005037 -0.014129 0.033500
v -0.000099 -0.015000 0.033500
v -0.005224 -0.014061 0.033500
v -0.009718 -0.011427 0.033500
v -0.013040 -0.007414 0.033500
v -0.014789 -0.002507 0.033500
v -0.014755 0.002703 0.033500
v -0.012940 0.007586 0.033500
v 0.009565 -0.011554 -0.033500
v 0.012940 -0.007586 -0.033500
v -0.013040 -0.007414 -0.033500
v -0.009718 -0.011427 -0.033500
v -0.009565 0.011554 -0.033500
v -0.012940 0.007586 -0.033500
v -0.014755 0.002703 -0.033500
v -0.014789 -0.002507 -0.033500
v -0.005224 -0.014061 -0.033500
v -0.000099 -0.015000 -0.033500
v 0.005037 -0.014129 -0.033500
v 0.014755 -0.002703 -0.033500
v 0.014789 0.002507 -0.033500
v 0.013040 0.007414 -0.033500
v 0.009718 0.011427 -0.033500
v 0.005224 0.014061 -0.033500
v 0.000099 0.015000 -0.033500
v -0.005037 0.014129 -0.033500
v 0.017309 0.100388 0.005408
v 0.014823 0.100404 0.010286
v 0.010952 0.100430 0.014158
v 0.006074 0.100462 0.016643
v 0.000666 0.100498 0.017500
v -0.004742 0.100534 0.016643
v -0.009620 0.100566 0.014158
v -0.013492 0.100592 0.010286
v -0.015977 0.100608 0.005408
v -0.016834 0.100614 0.000000
v -0.015977 0.100608 -0.005408
v -0.013492 0.100592 -0.010286
v -0.009620 0.100566 -0.014158
v -0.004742 0.100534 -0.016643
v 0.000666 0.100498 -0.017500
v 0.006074 0.100462 -0.016643
v 0.010952 0.100430 -0.014158
v 0.014823 0.100404 -0.010286
v 0.017309 0.100388 -0.005408
v 0.018166 0.100382 0.000000
v 0.000666 0.100498 0.000000

f 1 2 3
f 3 2 4
f 5 1 6
f 6 1 3
f 7 8 6
f 9 10 11
f 11 12 9
f 9 12 13
f 9 13 6
f 6 13 14
f 6 14 7
f 15 16 17
f 16 18 17
f 17 18 19
f 17 19 9
f 9 19 20
f 9 20 10
f 5 21 22
f 8 23 6
f 6 23 24
f 6 24 5
f 5 24 25
f 5 25 21
f 22 26 5
f 5 26 27
f 5 27 17
f 17 27 28
f 17 28 15
f 2 17 4
f 4 17 9
f 29 30 5
f 5 30 31
f 29 5 32
f 32 5 17
f 32 17 33
f 31 34 5
f 5 34 35
f 5 35 1
f 1 35 36
f 1 36 37
f 37 38 1
f 1 38 39
f 1 39 2
f 2 39 40
f 40 41 2
f 2 41 42
f 2 42 43
f 43 44 2
f 2 44 45
f 2 45 17
f 17 45 46
f 17 46 33
f 47 48 3
f 49 50 4
f 51 52 9
f 9 52 53
f 9 53 4
f 4 53 54
f 4 54 49
f 50 55 4
f 4 55 56
f 4 56 3
f 3 56 57
f 3 57 47
f 48 58 3
f 3 58 59
f 3 59 6
f 6 59 60
f 6 60 61
f 61 62 6
f 6 62 63
f 6 63 9
f 9 63 64
f 9 64 51
f 63 29 64
f 64 29 32
f 64 32 51
f 51 32 33
f 51 33 52
f 52 33 46
f 52 46 53
f 53 46 45
f 53 45 54
f 54 45 44
f 54 44 49
f 49 44 43
f 49 43 50
f 50 43 42
f 50 42 55
f 55 42 41
f 55 41 56
f 56 41 40
f 56 40 57
f 57 40 39
f 57 39 47
f 47 39 38
f 47 38 48
f 48 38 37
f 48 37 58
f 58 37 36
f 58 36 59
f 59 36 35
f 59 35 60
f 60 35 34
f 60 34 61
f 61 34 31
f 61 31 62
f 62 31 30
f 62 30 63
f 63 30 29
f 24 65 25
f 25 65 66
f 25 66 21
f 21 66 67
f 21 67 22
f 22 67 68
f 22 68 26
f 26 68 69
f 26 69 27
f 27 69 70
f 27 70 28
f 28 70 71
f 28 71 15
f 15 71 72
f 15 72 16
f 16 72 73
f 16 73 18
f 18 73 74
f 18 74 19
f 19 74 75
f 19 75 20
f 20 75 76
f 20 76 10
f 10 76 77
f 10 77 11
f 11 77 78
f 11 78 12
f 12 78 79
f 12 79 13
f 13 79 80
f 13 80 14
f 14 80 81
f 14 81 7
f 7 81 82
f 7 82 8
f 8 82 83
f 8 83 23
f 23 83 84
f 23 84 24
f 24 84 65
f 74 73 85
f 74 85 75
f 78 77 85
f 85 77 76
f 85 76 75
f 81 80 85
f 85 80 79
f 85 79 78
f 84 83 85
f 85 83 82
f 85 82 81
f 67 66 85
f 85 66 65
f 85 65 84
f 70 69 85
f 85 69 68
f 85 68 67
f 73 72 85
f 85 72 71
f 85 71 70
