# OBJ file converted from STL
# Original file: link_4.STL
# Vertices: 209
# Faces: 422
# Generated by convert_meshes_stl_to_obj.py

v 0.028059 -0.004992 0.038625
v 0.028059 -0.004992 0.041625
v 0.026245 -0.011110 0.041625
v 0.026245 -0.011110 0.038625
v 0.023115 -0.016672 0.041625
v 0.023115 -0.016672 0.038625
v 0.018826 -0.021397 0.041625
v 0.018826 -0.021397 0.038625
v 0.013592 -0.025050 0.041625
v 0.013592 -0.025050 0.038625
v 0.007677 -0.027446 0.041625
v 0.007677 -0.027446 0.038625
v 0.001377 -0.028467 0.041625
v 0.001377 -0.028467 0.038625
v -0.004992 -0.028059 0.041625
v -0.004992 -0.028059 0.038625
v -0.011110 -0.026245 0.041625
v -0.011110 -0.026245 0.038625
v -0.016672 -0.023115 0.041625
v -0.016672 -0.023115 0.038625
v -0.021397 -0.018826 0.041625
v -0.021397 -0.018826 0.038625
v -0.025050 -0.013592 0.041625
v -0.025050 -0.013592 0.038625
v -0.027446 -0.007677 0.041625
v -0.027446 -0.007677 0.038625
v -0.028467 -0.001377 0.041625
v -0.028467 -0.001377 0.038625
v -0.028059 0.004992 0.041625
v -0.028059 0.004992 0.038625
v 0.028059 -0.004992 -0.041625
v 0.028059 -0.004992 -0.038625
v 0.026245 -0.011110 -0.038625
v 0.026245 -0.011110 -0.041625
v 0.023115 -0.016672 -0.038625
v 0.023115 -0.016672 -0.041625
v 0.018826 -0.021397 -0.038625
v 0.018826 -0.021397 -0.041625
v 0.013592 -0.025050 -0.038625
v 0.013592 -0.025050 -0.041625
v 0.007677 -0.027446 -0.038625
v 0.007677 -0.027446 -0.041625
v 0.001377 -0.028467 -0.038625
v 0.001377 -0.028467 -0.041625
v -0.004992 -0.028059 -0.038625
v -0.004992 -0.028059 -0.041625
v -0.011110 -0.026245 -0.038625
v -0.011110 -0.026245 -0.041625
v -0.016672 -0.023115 -0.038625
v -0.016672 -0.023115 -0.041625
v -0.021397 -0.018826 -0.038625
v -0.021397 -0.018826 -0.041625
v -0.025050 -0.013592 -0.038625
v -0.025050 -0.013592 -0.041625
v -0.027446 -0.007677 -0.038625
v -0.027446 -0.007677 -0.041625
v -0.028467 -0.001377 -0.038625
v -0.028467 -0.001377 -0.041625
v -0.028059 0.004992 -0.038625
v -0.028059 0.004992 -0.041625
v -0.023068 0.033051 -0.038625
v -0.023068 0.033051 0.038625
v -0.014223 0.082770 0.041625
v -0.014223 0.082770 -0.041625
v -0.004867 0.081106 -0.012056
v -0.001328 0.080477 -0.016402
v 0.005682 0.079230 0.020920
v 0.000816 0.080095 0.018203
v -0.003232 0.080815 0.014342
v -0.006208 0.081345 0.009580
v -0.007923 0.081650 0.004216
v -0.008272 0.081712 -0.001413
v -0.007232 0.081527 -0.006953
v 0.033880 0.074213 0.009580
v 0.030905 0.074743 0.014342
v 0.041896 0.072787 0.041625
v 0.026857 0.075463 0.018203
v 0.021991 0.076328 0.020920
v 0.016613 0.077285 0.022323
v 0.013836 0.077779 0.022500
v 0.011060 0.078273 0.022323
v 0.019345 0.076799 -0.021793
v 0.024508 0.075880 -0.019717
v 0.041896 0.072787 -0.041625
v 0.029001 0.075081 -0.016402
v 0.032540 0.074452 -0.012056
v 0.034904 0.074031 -0.006953
v 0.035945 0.073846 -0.001413
v 0.035596 0.073908 0.004216
v 0.003164 0.079677 -0.019717
v 0.008327 0.078759 -0.021793
v 0.013836 0.077779 -0.022500
v 0.033051 0.023068 0.038625
v 0.033051 0.023068 -0.038625
v -0.001913 0.017395 -0.041625
v -0.006737 0.016151 -0.041625
v -0.011014 0.013599 -0.041625
v 0.015028 0.008967 -0.041625
v 0.016946 0.004369 -0.041625
v 0.017490 -0.000582 -0.041625
v 0.011893 0.012837 -0.041625
v 0.007795 0.015668 -0.041625
v 0.003065 0.017230 -0.041625
v 0.016618 -0.005486 -0.041625
v 0.014399 -0.009945 -0.041625
v 0.011014 -0.013599 -0.041625
v 0.006737 -0.016151 -0.041625
v -0.014399 0.009945 -0.041625
v -0.016618 0.005486 -0.041625
v -0.017490 0.000582 -0.041625
v -0.016946 -0.004369 -0.041625
v -0.015028 -0.008967 -0.041625
v -0.011893 -0.012837 -0.041625
v -0.007795 -0.015668 -0.041625
v 0.001913 -0.017395 -0.041625
v -0.003065 -0.017230 -0.041625
v -0.017490 0.000582 0.041625
v -0.011893 -0.012837 0.041625
v -0.007795 -0.015668 0.041625
v -0.003065 -0.017230 0.041625
v 0.001913 -0.017395 0.041625
v 0.006737 -0.016151 0.041625
v 0.011014 -0.013599 0.041625
v 0.014399 -0.009945 0.041625
v 0.016618 -0.005486 0.041625
v 0.017490 -0.000582 0.041625
v -0.016946 -0.004369 0.041625
v -0.015028 -0.008967 0.041625
v -0.016618 0.005486 0.041625
v -0.014399 0.009945 0.041625
v -0.011014 0.013599 0.041625
v -0.006737 0.016151 0.041625
v -0.001913 0.017395 0.041625
v 0.003065 0.017230 0.041625
v 0.007795 0.015668 0.041625
v 0.011893 0.012837 0.041625
v 0.015028 0.008967 0.041625
v 0.016946 0.004369 0.041625
v 0.011893 0.012837 0.038625
v 0.015028 0.008967 0.038625
v 0.016946 0.004369 0.038625
v 0.007795 0.015668 0.038625
v 0.003065 0.017230 0.038625
v -0.001913 0.017395 0.038625
v -0.006737 0.016151 0.038625
v 0.017490 -0.000582 0.038625
v 0.016618 -0.005486 0.038625
v 0.014399 -0.009945 0.038625
v 0.011014 -0.013599 0.038625
v 0.006737 -0.016151 0.038625
v -0.007795 -0.015668 0.038625
v -0.011893 -0.012837 0.038625
v -0.015028 -0.008967 0.038625
v -0.016946 -0.004369 0.038625
v -0.017490 0.000582 0.038625
v -0.016618 0.005486 0.038625
v -0.014399 0.009945 0.038625
v -0.011014 0.013599 0.038625
v 0.001913 -0.017395 0.038625
v -0.003065 -0.017230 0.038625
v 0.011893 0.012837 -0.038625
v 0.015028 0.008967 -0.038625
v 0.016946 0.004369 -0.038625
v 0.017490 -0.000582 -0.038625
v 0.016618 -0.005486 -0.038625
v 0.014399 -0.009945 -0.038625
v 0.011014 -0.013599 -0.038625
v 0.006737 -0.016151 -0.038625
v 0.001913 -0.017395 -0.038625
v -0.003065 -0.017230 -0.038625
v -0.007795 -0.015668 -0.038625
v -0.011893 -0.012837 -0.038625
v -0.011014 0.013599 -0.038625
v -0.006737 0.016151 -0.038625
v -0.015028 -0.008967 -0.038625
v -0.016946 -0.004369 -0.038625
v -0.017490 0.000582 -0.038625
v -0.016618 0.005486 -0.038625
v -0.014399 0.009945 -0.038625
v -0.001913 0.017395 -0.038625
v 0.003065 0.017230 -0.038625
v 0.007795 0.015668 -0.038625
v 0.018014 0.085161 0.022323
v 0.015238 0.085655 0.022500
v 0.012461 0.086149 0.022323
v 0.007083 0.087106 0.020920
v 0.002217 0.087972 0.018203
v -0.001831 0.088692 0.014342
v -0.004806 0.089221 0.009580
v -0.006522 0.089526 0.004216
v -0.006871 0.089588 -0.001413
v -0.005831 0.089403 -0.006953
v -0.003466 0.088983 -0.012056
v 0.000073 0.088353 -0.016402
v 0.004566 0.087554 -0.019717
v 0.009728 0.086635 -0.021793
v 0.015238 0.085655 -0.022500
v 0.020747 0.084675 -0.021793
v 0.025909 0.083757 -0.019717
v 0.030402 0.082958 -0.016402
v 0.033941 0.082328 -0.012056
v 0.036306 0.081907 -0.006953
v 0.037346 0.081722 -0.001413
v 0.036997 0.081784 0.004216
v 0.035281 0.082090 0.009580
v 0.032306 0.082619 0.014342
v 0.028258 0.083339 0.018203
v 0.023392 0.084205 0.020920
v 0.015238 0.085655 -0.000000

f 1 2 3
f 1 3 4
f 4 3 5
f 4 5 6
f 6 5 7
f 6 7 8
f 8 7 9
f 8 9 10
f 10 9 11
f 10 11 12
f 12 11 13
f 12 13 14
f 14 13 15
f 14 15 16
f 16 15 17
f 16 17 18
f 18 17 19
f 18 19 20
f 20 19 21
f 20 21 22
f 22 21 23
f 22 23 24
f 24 23 25
f 24 25 26
f 26 25 27
f 26 27 28
f 28 27 29
f 28 29 30
f 31 32 33
f 31 33 34
f 34 33 35
f 34 35 36
f 36 35 37
f 36 37 38
f 38 37 39
f 38 39 40
f 40 39 41
f 40 41 42
f 42 41 43
f 42 43 44
f 44 43 45
f 44 45 46
f 46 45 47
f 46 47 48
f 48 47 49
f 48 49 50
f 50 49 51
f 50 51 52
f 52 51 53
f 52 53 54
f 54 53 55
f 54 55 56
f 56 55 57
f 56 57 58
f 58 57 59
f 58 59 60
f 60 59 61
f 30 29 62
f 62 29 63
f 62 63 61
f 61 63 64
f 61 64 60
f 65 66 64
f 67 68 63
f 63 68 69
f 63 69 70
f 70 71 63
f 63 71 72
f 63 72 64
f 64 72 73
f 64 73 65
f 74 75 76
f 76 75 77
f 76 77 78
f 78 79 76
f 76 79 80
f 76 80 63
f 63 80 81
f 63 81 67
f 82 83 84
f 84 83 85
f 84 85 86
f 86 87 84
f 84 87 88
f 84 88 76
f 76 88 89
f 76 89 74
f 66 90 64
f 64 90 91
f 64 91 84
f 84 91 92
f 84 92 82
f 2 1 93
f 32 31 94
f 94 31 84
f 94 84 93
f 93 84 76
f 93 76 2
f 95 96 64
f 64 96 97
f 64 97 60
f 98 84 99
f 99 84 31
f 99 31 100
f 98 101 84
f 84 101 102
f 84 102 64
f 64 102 103
f 64 103 95
f 100 31 104
f 104 31 34
f 104 34 105
f 105 34 36
f 105 36 106
f 106 36 38
f 106 38 107
f 97 108 60
f 60 108 109
f 60 109 58
f 58 109 110
f 58 110 56
f 56 110 111
f 56 111 54
f 54 111 112
f 54 112 52
f 52 112 113
f 52 113 50
f 50 113 114
f 38 40 107
f 107 40 42
f 107 42 115
f 115 42 44
f 115 44 116
f 116 44 46
f 116 46 114
f 114 46 48
f 114 48 50
f 29 27 117
f 118 19 119
f 119 19 17
f 119 17 120
f 120 17 15
f 120 15 121
f 15 13 121
f 121 13 11
f 121 11 122
f 122 11 9
f 122 9 123
f 123 9 7
f 123 7 124
f 124 7 5
f 124 5 125
f 125 5 3
f 125 3 126
f 126 3 2
f 117 27 127
f 127 27 25
f 127 25 128
f 128 25 23
f 128 23 118
f 118 23 21
f 118 21 19
f 117 129 29
f 29 129 130
f 29 130 63
f 63 130 131
f 63 131 132
f 132 133 63
f 63 133 134
f 63 134 76
f 76 134 135
f 135 136 76
f 76 136 137
f 76 137 2
f 2 137 138
f 2 138 126
f 139 93 140
f 140 93 141
f 139 142 93
f 93 142 143
f 93 143 62
f 62 143 144
f 62 144 145
f 141 93 146
f 146 93 1
f 146 1 147
f 147 1 4
f 147 4 148
f 148 4 6
f 148 6 149
f 149 6 8
f 149 8 150
f 151 20 152
f 152 20 22
f 152 22 153
f 153 22 24
f 153 24 154
f 154 24 26
f 154 26 155
f 155 26 28
f 155 28 156
f 156 28 30
f 156 30 157
f 157 30 62
f 157 62 158
f 158 62 145
f 8 10 150
f 150 10 12
f 150 12 159
f 159 12 14
f 159 14 160
f 160 14 16
f 160 16 151
f 151 16 18
f 151 18 20
f 61 94 62
f 62 94 93
f 161 162 94
f 94 162 163
f 94 163 32
f 32 163 164
f 32 164 33
f 33 164 165
f 33 165 35
f 35 165 166
f 35 166 37
f 37 166 167
f 37 167 39
f 39 167 168
f 39 168 41
f 41 168 169
f 41 169 43
f 43 169 45
f 45 169 170
f 45 170 47
f 47 170 171
f 47 171 49
f 49 171 172
f 49 172 51
f 173 174 61
f 51 172 53
f 53 172 175
f 53 175 55
f 55 175 176
f 55 176 57
f 57 176 177
f 57 177 59
f 59 177 178
f 59 178 61
f 61 178 179
f 61 179 173
f 174 180 61
f 61 180 181
f 61 181 94
f 94 181 182
f 94 182 161
f 181 103 182
f 182 103 102
f 182 102 161
f 161 102 101
f 161 101 162
f 162 101 98
f 162 98 163
f 163 98 99
f 163 99 164
f 164 99 100
f 164 100 165
f 165 100 104
f 165 104 166
f 166 104 105
f 166 105 167
f 167 105 106
f 167 106 168
f 168 106 107
f 168 107 169
f 169 107 115
f 169 115 170
f 170 115 116
f 170 116 171
f 171 116 114
f 171 114 172
f 172 114 113
f 172 113 175
f 175 113 112
f 175 112 176
f 176 112 111
f 176 111 177
f 177 111 110
f 177 110 178
f 178 110 109
f 178 109 179
f 179 109 108
f 179 108 173
f 173 108 97
f 173 97 174
f 174 97 96
f 174 96 180
f 180 96 95
f 180 95 181
f 181 95 103
f 134 143 135
f 135 143 142
f 135 142 136
f 136 142 139
f 136 139 137
f 137 139 140
f 137 140 138
f 138 140 141
f 138 141 126
f 126 141 146
f 126 146 125
f 125 146 147
f 125 147 124
f 124 147 148
f 124 148 123
f 123 148 149
f 123 149 122
f 122 149 150
f 122 150 121
f 121 150 159
f 121 159 120
f 120 159 160
f 120 160 119
f 119 160 151
f 119 151 118
f 118 151 152
f 118 152 128
f 128 152 153
f 128 153 127
f 127 153 154
f 127 154 117
f 117 154 155
f 117 155 129
f 129 155 156
f 129 156 130
f 130 156 157
f 130 157 131
f 131 157 158
f 131 158 132
f 132 158 145
f 132 145 133
f 133 145 144
f 133 144 134
f 134 144 143
f 183 184 80
f 80 184 81
f 184 185 81
f 81 185 186
f 81 186 67
f 67 186 187
f 67 187 68
f 68 187 188
f 68 188 69
f 69 188 189
f 69 189 70
f 70 189 190
f 70 190 71
f 71 190 191
f 71 191 72
f 72 191 192
f 72 192 73
f 73 192 193
f 73 193 65
f 65 193 194
f 65 194 66
f 66 194 195
f 66 195 90
f 90 195 196
f 90 196 91
f 91 196 197
f 91 197 92
f 92 197 198
f 92 198 82
f 82 198 199
f 82 199 83
f 83 199 200
f 83 200 85
f 85 200 201
f 85 201 86
f 86 201 202
f 86 202 87
f 87 202 203
f 87 203 88
f 88 203 204
f 88 204 89
f 89 204 205
f 89 205 74
f 74 205 206
f 74 206 75
f 75 206 207
f 75 207 77
f 77 207 208
f 77 208 78
f 78 208 183
f 78 183 79
f 79 183 80
f 184 183 209
f 184 209 185
f 188 187 209
f 209 187 186
f 209 186 185
f 191 190 209
f 209 190 189
f 209 189 188
f 194 193 209
f 209 193 192
f 209 192 191
f 197 196 209
f 209 196 195
f 209 195 194
f 200 199 209
f 209 199 198
f 209 198 197
f 203 202 209
f 209 202 201
f 209 201 200
f 206 205 209
f 209 205 204
f 209 204 203
f 183 208 209
f 209 208 207
f 209 207 206
