# OBJ file converted from STL
# Original file: link_6.STL
# Vertices: 194
# Faces: 384
# Generated by convert_meshes_stl_to_obj.py

v 0.007461 0.013013 0.071034
v 0.009240 0.011816 0.070605
v 0.012360 0.029828 0.070605
v -0.004727 0.014236 0.070605
v -0.001607 0.032247 0.070605
v -0.007539 0.012968 0.069819
v -0.008152 0.033381 0.067975
v -0.009670 0.011467 0.069083
v -0.011520 0.009607 0.068367
v -0.014778 0.002573 0.067233
v -0.014111 0.005088 0.067373
v -0.013847 0.034368 0.063776
v -0.013395 0.006750 0.067623
v -0.012498 0.008295 0.067975
v -0.012962 -0.007549 0.069084
v -0.014080 -0.005173 0.068367
v -0.016601 -0.015393 0.067975
v -0.014608 -0.003409 0.067930
v -0.022295 -0.014406 0.063776
v -0.014886 -0.001842 0.067622
v -0.015000 -0.000045 0.067373
v -0.005088 -0.014111 0.071381
v -0.007461 -0.013013 0.071034
v -0.010056 -0.016526 0.070605
v -0.009240 -0.011816 0.070605
v -0.011462 -0.009676 0.069819
v -0.002560 -0.014780 0.071500
v -0.003072 -0.017736 0.071500
v 0.000062 -0.015000 0.071379
v 0.003912 -0.018946 0.070605
v 0.002649 -0.014764 0.071034
v 0.011520 -0.009607 0.068367
v 0.009672 -0.011466 0.069083
v 0.010456 -0.020079 0.067975
v 0.007539 -0.012968 0.069819
v 0.004727 -0.014236 0.070605
v 0.014779 -0.002568 0.067233
v 0.014111 -0.005088 0.067373
v 0.016151 -0.021066 0.063776
v 0.013392 -0.006756 0.067624
v 0.012498 -0.008295 0.067975
v 0.018905 0.028694 0.067975
v 0.011462 0.009676 0.069819
v 0.012966 0.007542 0.069082
v 0.014080 0.005173 0.068367
v 0.014607 0.003409 0.067930
v 0.024600 0.027708 0.063776
v 0.014886 0.001846 0.067622
v 0.015000 0.000045 0.067373
v -0.002649 0.014764 0.071034
v -0.000052 0.015000 0.071380
v 0.005376 0.031038 0.071500
v 0.002560 0.014780 0.071500
v 0.005111 0.014103 0.071379
v 0.008896 0.030428 0.014725
v 0.004322 0.014364 0.014557
v 0.002560 0.014780 0.014500
v 0.001857 0.031647 0.014725
v 0.011462 0.009676 0.016181
v 0.009614 0.011514 0.015507
v 0.015714 0.029247 0.016501
v 0.007461 0.013013 0.014966
v 0.006027 0.013736 0.014728
v 0.013005 -0.007475 0.018226
v 0.014111 -0.005088 0.018627
v 0.013434 -0.020595 0.019943
v 0.011520 -0.009607 0.017633
v 0.014782 -0.002547 0.018767
v 0.015000 0.000045 0.018627
v 0.021882 0.028179 0.019943
v 0.014759 0.002677 0.018224
v 0.014080 0.005173 0.017633
v 0.013243 0.007044 0.017079
v 0.012167 0.008772 0.016501
v 0.000447 -0.018346 0.014725
v 0.001033 -0.014964 0.014725
v 0.007265 -0.019527 0.016501
v 0.002649 -0.014764 0.014966
v 0.005176 -0.014079 0.015505
v 0.007539 -0.012968 0.016181
v 0.008564 -0.012315 0.016521
v 0.010102 -0.011088 0.017079
v -0.006592 -0.017126 0.014725
v -0.004322 -0.014364 0.014557
v -0.003072 -0.017736 0.014500
v -0.002560 -0.014780 0.014500
v -0.000772 -0.014980 0.014557
v -0.011462 -0.009676 0.016181
v -0.009620 -0.011509 0.015509
v -0.013410 -0.015945 0.016501
v -0.007461 -0.013013 0.014966
v -0.006027 -0.013736 0.014728
v -0.013007 0.007471 0.018227
v -0.014111 0.005088 0.018627
v -0.011130 0.033897 0.019943
v -0.011520 0.009607 0.017633
v -0.014781 0.002553 0.018767
v -0.015000 -0.000045 0.018627
v -0.019578 -0.014877 0.019943
v -0.014760 -0.002673 0.018225
v -0.014080 -0.005173 0.017633
v -0.013242 -0.007047 0.017078
v -0.012167 -0.008772 0.016501
v 0.000764 0.014981 0.014557
v -0.001033 0.014964 0.014725
v -0.004961 0.032828 0.016501
v -0.002649 0.014764 0.014966
v -0.005186 0.014075 0.015508
v -0.007539 0.012968 0.016181
v -0.008565 0.012314 0.016521
v -0.010109 0.011082 0.017081
v 0.018565 -0.021484 0.024833
v 0.025083 0.027624 0.022696
v -0.012848 0.054492 0.024833
v -0.010917 0.054158 0.022696
v -0.014330 0.034451 0.022696
v -0.026782 -0.013629 0.058271
v -0.014330 0.034451 0.063304
v 0.032500 0.046637 0.058271
v 0.028496 0.047331 0.063304
v 0.025083 0.027624 0.063304
v 0.020638 -0.021843 0.058271
v 0.023635 -0.022362 0.051807
v 0.035497 0.046118 0.051807
v 0.024954 -0.022591 0.044790
v 0.036816 0.045890 0.044790
v 0.024512 -0.022514 0.037660
v 0.036374 0.045966 0.037660
v 0.022337 -0.022137 0.030865
v 0.034199 0.046343 0.030865
v 0.030427 0.046996 0.024833
v 0.028496 0.047331 0.022696
v -0.024710 -0.013988 0.024833
v -0.028481 -0.013335 0.030865
v -0.016619 0.055146 0.030865
v -0.030657 -0.012958 0.037660
v -0.018795 0.055522 0.037660
v -0.031099 -0.012881 0.044790
v -0.019237 0.055599 0.044790
v -0.029780 -0.013110 0.051807
v -0.017918 0.055371 0.051807
v -0.014920 0.054851 0.058271
v -0.010917 0.054158 0.063304
v -0.003072 -0.017736 0.043000
v 0.025083 0.027624 -0.011000
v -0.014330 0.034451 -0.011000
v 0.028496 0.047331 -0.011000
v -0.010917 0.054158 -0.011000
v 0.002737 0.132984 0.022696
v 0.042150 0.126157 0.022696
v -0.014330 0.034451 0.097000
v 0.025083 0.027624 0.097000
v 0.042150 0.126157 0.063304
v 0.028496 0.047331 0.097000
v -0.010917 0.054158 0.097000
v 0.002737 0.132984 0.063304
v 0.007539 -0.012968 0.001500
v 0.002649 -0.014764 0.001500
v -0.000000 -0.000000 0.001500
v -0.002560 -0.014780 0.001500
v -0.007461 -0.013013 0.001500
v 0.015000 0.000045 0.001500
v 0.014111 -0.005088 0.001500
v 0.011520 -0.009607 0.001500
v 0.007461 0.013013 0.001500
v 0.011462 0.009676 0.001500
v 0.014080 0.005173 0.001500
v -0.007539 0.012968 0.001500
v -0.002649 0.014764 0.001500
v 0.002560 0.014780 0.001500
v -0.015000 -0.000045 0.001500
v -0.014111 0.005088 0.001500
v -0.011520 0.009607 0.001500
v -0.011462 -0.009676 0.001500
v -0.014080 -0.005173 0.001500
v 0.002649 -0.014764 0.084500
v 0.011462 0.009676 0.084500
v 0.007461 0.013013 0.084500
v 0.014080 0.005173 0.084500
v 0.015000 0.000045 0.084500
v 0.014111 -0.005088 0.084500
v 0.011520 -0.009607 0.084500
v 0.007539 -0.012968 0.084500
v -0.002560 -0.014780 0.084500
v -0.007461 -0.013013 0.084500
v -0.011462 -0.009676 0.084500
v -0.014080 -0.005173 0.084500
v -0.015000 -0.000045 0.084500
v -0.014111 0.005088 0.084500
v -0.011520 0.009607 0.084500
v -0.007539 0.012968 0.084500
v -0.002649 0.014764 0.084500
v 0.002560 0.014780 0.084500
v -0.000000 -0.000000 0.084500

f 1 2 3
f 4 5 6
f 6 5 7
f 6 7 8
f 8 7 9
f 10 11 12
f 12 11 13
f 12 13 7
f 7 13 14
f 7 14 9
f 15 16 17
f 17 16 18
f 17 18 19
f 19 18 20
f 19 20 21
f 22 23 24
f 24 23 25
f 24 25 17
f 17 25 26
f 17 26 15
f 22 24 27
f 27 24 28
f 27 28 29
f 29 28 30
f 29 30 31
f 32 33 34
f 34 33 35
f 34 35 30
f 30 35 36
f 30 36 31
f 37 38 39
f 39 38 40
f 39 40 34
f 34 40 41
f 34 41 32
f 3 2 42
f 42 2 43
f 42 43 44
f 44 45 42
f 42 45 46
f 42 46 47
f 47 46 48
f 47 48 49
f 4 50 5
f 5 50 51
f 5 51 52
f 52 51 53
f 52 53 3
f 3 53 54
f 3 54 1
f 55 56 57
f 55 57 58
f 59 60 61
f 61 60 62
f 61 62 55
f 55 62 63
f 55 63 56
f 64 65 66
f 64 66 67
f 68 69 70
f 70 69 71
f 71 72 70
f 70 72 73
f 70 73 61
f 61 73 74
f 61 74 59
f 75 76 77
f 77 76 78
f 77 78 79
f 79 80 77
f 77 80 81
f 77 81 66
f 66 81 82
f 66 82 67
f 83 84 85
f 85 84 86
f 85 86 75
f 75 86 87
f 75 87 76
f 88 89 90
f 90 89 91
f 90 91 83
f 83 91 92
f 83 92 84
f 93 94 95
f 93 95 96
f 97 98 99
f 99 98 100
f 100 101 99
f 99 101 102
f 99 102 90
f 90 102 103
f 90 103 88
f 57 104 58
f 58 104 105
f 58 105 106
f 106 105 107
f 106 107 108
f 108 109 106
f 106 109 110
f 106 110 95
f 95 110 111
f 95 111 96
f 65 68 66
f 66 68 70
f 66 70 112
f 112 70 113
f 114 115 116
f 21 10 19
f 19 10 12
f 19 12 117
f 117 12 118
f 119 120 121
f 49 37 47
f 47 37 39
f 47 39 121
f 121 39 122
f 121 122 119
f 119 122 123
f 119 123 124
f 124 123 125
f 124 125 126
f 126 125 127
f 126 127 128
f 128 127 129
f 128 129 130
f 130 129 112
f 130 112 131
f 131 112 113
f 131 113 132
f 94 97 95
f 95 97 99
f 95 99 116
f 116 99 133
f 116 133 114
f 114 133 134
f 114 134 135
f 135 134 136
f 135 136 137
f 137 136 138
f 137 138 139
f 139 138 140
f 139 140 141
f 141 140 117
f 141 117 142
f 142 117 118
f 142 118 143
f 142 143 120
f 131 132 115
f 120 119 142
f 142 119 124
f 142 124 126
f 126 128 142
f 142 128 130
f 142 130 131
f 115 114 131
f 131 114 135
f 131 135 137
f 137 139 131
f 131 139 141
f 131 141 142
f 85 75 144
f 85 144 83
f 133 99 144
f 144 99 90
f 144 90 83
f 138 136 144
f 144 136 134
f 144 134 133
f 19 117 144
f 144 117 140
f 144 140 138
f 28 24 144
f 144 24 17
f 144 17 19
f 39 34 144
f 144 34 30
f 144 30 28
f 125 123 144
f 144 123 122
f 144 122 39
f 112 129 144
f 144 129 127
f 144 127 125
f 75 77 144
f 144 77 66
f 144 66 112
f 145 146 147
f 147 146 148
f 145 113 70
f 58 146 55
f 55 146 145
f 55 145 61
f 61 145 70
f 58 106 146
f 146 106 95
f 146 95 116
f 149 148 115
f 115 148 146
f 115 146 116
f 113 145 132
f 132 145 147
f 132 147 150
f 7 151 12
f 12 151 118
f 7 5 151
f 151 5 52
f 151 52 152
f 152 52 3
f 3 42 152
f 152 42 47
f 152 47 121
f 153 154 120
f 120 154 152
f 120 152 121
f 118 151 143
f 143 151 155
f 143 155 156
f 151 152 155
f 155 152 154
f 153 156 154
f 154 156 155
f 120 143 153
f 153 143 156
f 150 149 132
f 132 149 115
f 147 148 150
f 150 148 149
f 157 158 159
f 159 158 160
f 159 160 161
f 162 163 159
f 159 163 164
f 159 164 157
f 165 166 159
f 159 166 167
f 159 167 162
f 168 169 159
f 159 169 170
f 159 170 165
f 171 172 159
f 159 172 173
f 159 173 168
f 161 174 159
f 159 174 175
f 159 175 171
f 63 62 165
f 92 91 161
f 107 169 108
f 108 169 168
f 108 168 109
f 109 168 110
f 110 168 173
f 110 173 111
f 172 93 173
f 173 93 96
f 173 96 111
f 171 97 172
f 172 97 94
f 172 94 93
f 102 101 175
f 175 101 100
f 175 100 171
f 171 100 98
f 171 98 97
f 161 91 174
f 91 89 174
f 174 89 88
f 174 88 175
f 175 88 103
f 175 103 102
f 78 76 158
f 158 76 87
f 158 87 160
f 160 87 86
f 160 86 161
f 161 86 84
f 161 84 92
f 78 158 79
f 79 158 157
f 79 157 80
f 80 157 81
f 81 157 164
f 81 164 82
f 163 64 164
f 164 64 67
f 164 67 82
f 162 68 163
f 163 68 65
f 163 65 64
f 73 72 167
f 167 72 71
f 167 71 162
f 162 71 69
f 162 69 68
f 165 62 166
f 62 60 166
f 166 60 59
f 166 59 167
f 167 59 74
f 167 74 73
f 107 105 169
f 169 105 104
f 169 104 170
f 170 104 57
f 170 57 165
f 165 57 56
f 165 56 63
f 29 31 176
f 177 43 2
f 177 2 178
f 43 177 44
f 44 177 179
f 44 179 45
f 45 179 46
f 46 179 180
f 46 180 48
f 181 37 180
f 180 37 49
f 180 49 48
f 41 40 181
f 181 40 38
f 181 38 37
f 41 181 32
f 32 181 182
f 32 182 33
f 33 182 183
f 33 183 35
f 176 31 183
f 183 31 36
f 183 36 35
f 29 176 27
f 27 176 184
f 27 184 22
f 22 184 185
f 22 185 23
f 23 185 25
f 25 185 186
f 25 186 26
f 26 186 15
f 15 186 187
f 15 187 16
f 16 187 18
f 18 187 188
f 18 188 20
f 189 10 188
f 188 10 21
f 188 21 20
f 14 13 189
f 189 13 11
f 189 11 10
f 14 189 9
f 9 189 190
f 9 190 8
f 8 190 191
f 8 191 6
f 192 50 191
f 191 50 4
f 191 4 6
f 2 1 178
f 178 1 54
f 178 54 193
f 193 54 53
f 193 53 192
f 192 53 51
f 192 51 50
f 186 185 194
f 194 185 184
f 194 184 176
f 189 188 194
f 194 188 187
f 194 187 186
f 192 191 194
f 194 191 190
f 194 190 189
f 177 178 194
f 194 178 193
f 194 193 192
f 181 180 194
f 194 180 179
f 194 179 177
f 176 183 194
f 194 183 182
f 194 182 181
