# OBJ file converted from STL
# Original file: link_3.STL
# Vertices: 219
# Faces: 438
# Generated by convert_meshes_stl_to_obj.py

v -0.031131 0.027398 -0.046500
v -0.031131 0.027398 -0.001500
v 0.029080 0.029565 -0.046500
v 0.029080 0.029565 -0.001500
v 0.029100 0.029018 -0.052060
v -0.031111 0.026850 -0.052060
v 0.029158 0.027397 -0.057406
v -0.031053 0.025230 -0.057406
v 0.029253 0.024765 -0.062334
v -0.030958 0.022598 -0.062334
v 0.029380 0.021223 -0.066653
v -0.030831 0.019056 -0.066653
v 0.029536 0.016907 -0.070197
v -0.030675 0.014740 -0.070197
v 0.029713 0.011983 -0.072831
v -0.030498 0.009815 -0.072831
v 0.029905 0.006640 -0.074452
v -0.030306 0.004473 -0.074452
v 0.030105 0.001084 -0.075000
v -0.030105 -0.001084 -0.075000
v 0.030306 -0.004473 -0.074452
v -0.029905 -0.006640 -0.074452
v 0.030498 -0.009815 -0.072831
v -0.029713 -0.011983 -0.072831
v 0.030675 -0.014740 -0.070197
v -0.029536 -0.016907 -0.070197
v 0.030831 -0.019056 -0.066653
v -0.029380 -0.021223 -0.066653
v 0.030958 -0.022598 -0.062334
v -0.029253 -0.024765 -0.062334
v 0.031053 -0.025230 -0.057406
v -0.029158 -0.027397 -0.057406
v 0.031111 -0.026850 -0.052060
v -0.029100 -0.029018 -0.052060
v 0.031131 -0.027398 -0.046500
v -0.029080 -0.029565 -0.046500
v -0.029080 -0.029565 -0.001500
v 0.031131 -0.027398 -0.001500
v -0.005165 -0.008563 -0.001500
v -0.007665 -0.006422 -0.001500
v 0.003685 0.009296 -0.001500
v 0.006504 0.007596 -0.001500
v 0.008960 -0.004440 -0.001500
v 0.007033 -0.007109 -0.001500
v -0.009335 -0.003585 -0.001500
v -0.009994 -0.000360 -0.001500
v -0.009569 0.002905 -0.001500
v -0.008107 0.005854 -0.001500
v 0.008618 0.005073 -0.001500
v 0.009798 0.002000 -0.001500
v 0.009916 -0.001290 -0.001500
v -0.005767 0.008169 -0.001500
v -0.002802 0.009599 -0.001500
v 0.000467 0.009989 -0.001500
v 0.004344 -0.009007 -0.001500
v 0.001184 -0.009930 -0.001500
v -0.002104 -0.009776 -0.001500
v -0.029949 -0.005433 -0.029550
v -0.029802 -0.009509 -0.031165
v -0.030675 0.014740 -0.053951
v -0.030724 0.016095 -0.049779
v -0.030734 0.016370 -0.045401
v -0.030704 0.015549 -0.041092
v -0.030637 0.013682 -0.037123
v -0.030537 0.010888 -0.033743
v -0.029674 -0.013056 -0.033743
v -0.029574 -0.015850 -0.037123
v -0.030409 0.007341 -0.031165
v -0.030262 0.003265 -0.029550
v -0.030105 -0.001084 -0.029000
v -0.029507 -0.017717 -0.041092
v -0.029477 -0.018538 -0.045401
v -0.029487 -0.018263 -0.049779
v -0.029536 -0.016908 -0.053951
v -0.029620 -0.014559 -0.057655
v -0.030591 0.012391 -0.057655
v -0.030476 0.009196 -0.060658
v -0.030337 0.005354 -0.062771
v -0.030184 0.001108 -0.063862
v -0.030105 -0.001084 -0.064000
v -0.030027 -0.003276 -0.063862
v -0.029874 -0.007522 -0.062771
v -0.029735 -0.011364 -0.060658
v 0.029874 0.007522 -0.030229
v 0.029735 0.011364 -0.032342
v 0.029620 0.014559 -0.035345
v 0.029536 0.016908 -0.039049
v 0.029487 0.018263 -0.043221
v 0.029477 0.018538 -0.047599
v 0.029507 0.017717 -0.051908
v 0.029574 0.015850 -0.055877
v 0.029674 0.013056 -0.059257
v 0.029802 0.009509 -0.061835
v 0.029949 0.005433 -0.063450
v 0.030591 -0.012391 -0.035345
v 0.030476 -0.009196 -0.032342
v 0.030337 -0.005354 -0.030229
v 0.030184 -0.001108 -0.029138
v 0.030027 0.003276 -0.029138
v 0.030105 0.001084 -0.064000
v 0.030262 -0.003265 -0.063450
v 0.030409 -0.007341 -0.061835
v 0.030537 -0.010888 -0.059257
v 0.030637 -0.013682 -0.055877
v 0.030704 -0.015549 -0.051908
v 0.030734 -0.016370 -0.047599
v 0.030724 -0.016095 -0.043221
v 0.030675 -0.014740 -0.039049
v -0.039021 -0.003600 -0.063862
v -0.039100 -0.001408 -0.064000
v -0.039179 0.000784 -0.063862
v -0.039331 0.005030 -0.062771
v -0.039470 0.008872 -0.060658
v -0.039585 0.012067 -0.057655
v -0.039669 0.014416 -0.053951
v -0.039718 0.015771 -0.049779
v -0.039728 0.016046 -0.045401
v -0.039699 0.015225 -0.041092
v -0.039631 0.013358 -0.037123
v -0.039531 0.010564 -0.033743
v -0.039403 0.007017 -0.031165
v -0.039256 0.002941 -0.029550
v -0.039100 -0.001408 -0.029000
v -0.038943 -0.005757 -0.029550
v -0.038796 -0.009833 -0.031165
v -0.038669 -0.013380 -0.033743
v -0.038568 -0.016174 -0.037123
v -0.038501 -0.018040 -0.041092
v -0.038471 -0.018862 -0.045401
v -0.038481 -0.018587 -0.049779
v -0.038530 -0.017232 -0.053951
v -0.038615 -0.014883 -0.057655
v -0.038730 -0.011687 -0.060658
v -0.038868 -0.007846 -0.062771
v -0.039448 0.008280 -0.044045
v -0.039458 0.008552 -0.047326
v -0.039429 0.007744 -0.050517
v -0.039364 0.005945 -0.053273
v -0.038879 -0.007546 -0.038609
v -0.038983 -0.004653 -0.037042
v -0.039100 -0.001408 -0.036500
v -0.039216 0.001837 -0.037042
v -0.038741 -0.011367 -0.047326
v -0.038751 -0.011095 -0.044045
v -0.038798 -0.009774 -0.041031
v -0.039321 0.004730 -0.038609
v -0.039401 0.006958 -0.041031
v -0.038928 -0.006164 -0.055295
v -0.038835 -0.008760 -0.053273
v -0.038770 -0.010560 -0.050517
v -0.039271 0.003349 -0.055295
v -0.039159 0.000237 -0.056364
v -0.039100 -0.001408 -0.056500
v -0.039040 -0.003053 -0.056364
v 0.038100 0.001372 -0.029000
v 0.038021 0.003564 -0.029138
v 0.037869 0.007810 -0.030229
v 0.037730 0.011651 -0.032342
v 0.037615 0.014847 -0.035345
v 0.037531 0.017196 -0.039049
v 0.037482 0.018551 -0.043221
v 0.037472 0.018826 -0.047599
v 0.037501 0.018004 -0.051908
v 0.037569 0.016138 -0.055877
v 0.037669 0.013344 -0.059257
v 0.037797 0.009797 -0.061835
v 0.037944 0.005721 -0.063450
v 0.038100 0.001372 -0.064000
v 0.038257 -0.002977 -0.063450
v 0.038404 -0.007053 -0.061835
v 0.038531 -0.010600 -0.059257
v 0.038632 -0.013394 -0.055877
v 0.038699 -0.015261 -0.051908
v 0.038729 -0.016082 -0.047599
v 0.038719 -0.015807 -0.043221
v 0.038670 -0.014452 -0.039049
v 0.038585 -0.012103 -0.035345
v 0.038470 -0.008908 -0.032342
v 0.038332 -0.005066 -0.030229
v 0.038179 -0.000820 -0.029138
v 0.038100 0.001372 -0.036500
v 0.037983 0.004617 -0.037042
v 0.037752 0.011060 -0.044045
v 0.037799 0.009738 -0.041031
v 0.037879 0.007510 -0.038609
v 0.038430 -0.007780 -0.050517
v 0.038365 -0.005981 -0.053273
v 0.038272 -0.003385 -0.055295
v 0.038160 -0.000273 -0.056364
v 0.038402 -0.006994 -0.041031
v 0.038449 -0.008316 -0.044045
v 0.038459 -0.008588 -0.047326
v 0.038217 -0.001873 -0.037042
v 0.038321 -0.004766 -0.038609
v 0.037836 0.008724 -0.053273
v 0.037771 0.010524 -0.050517
v 0.037742 0.011331 -0.047326
v 0.038041 0.003017 -0.056364
v 0.037929 0.006128 -0.055295
v -0.009994 -0.000360 -0.003500
v -0.009335 -0.003585 -0.003500
v -0.007665 -0.006422 -0.003500
v -0.005165 -0.008563 -0.003500
v -0.002104 -0.009776 -0.003500
v 0.001184 -0.009930 -0.003500
v 0.004344 -0.009007 -0.003500
v 0.007033 -0.007109 -0.003500
v 0.008960 -0.004440 -0.003500
v 0.009916 -0.001290 -0.003500
v 0.009798 0.002000 -0.003500
v 0.008618 0.005073 -0.003500
v 0.006504 0.007596 -0.003500
v 0.003685 0.009296 -0.003500
v 0.000467 0.009989 -0.003500
v -0.002802 0.009599 -0.003500
v -0.005767 0.008169 -0.003500
v -0.008107 0.005854 -0.003500
v -0.009569 0.002905 -0.003500
v 0.000000 0.000000 -0.003500

f 1 2 3
f 3 2 4
f 1 3 5
f 1 5 6
f 6 5 7
f 6 7 8
f 8 7 9
f 8 9 10
f 10 9 11
f 10 11 12
f 12 11 13
f 12 13 14
f 14 13 15
f 14 15 16
f 16 15 17
f 16 17 18
f 18 17 19
f 18 19 20
f 20 19 21
f 20 21 22
f 22 21 23
f 22 23 24
f 24 23 25
f 24 25 26
f 26 25 27
f 26 27 28
f 28 27 29
f 28 29 30
f 30 29 31
f 30 31 32
f 32 31 33
f 32 33 34
f 34 33 35
f 34 35 36
f 37 36 38
f 38 36 35
f 39 40 37
f 4 41 42
f 43 44 38
f 40 45 37
f 37 45 46
f 37 46 2
f 2 46 47
f 2 47 48
f 42 49 4
f 4 49 50
f 4 50 38
f 38 50 51
f 38 51 43
f 48 52 2
f 2 52 53
f 2 53 4
f 4 53 54
f 4 54 41
f 44 55 38
f 38 55 56
f 38 56 37
f 37 56 57
f 37 57 39
f 58 59 37
f 60 61 6
f 6 61 1
f 61 62 1
f 1 62 63
f 1 63 2
f 2 63 64
f 2 64 65
f 59 66 37
f 37 66 67
f 37 67 36
f 65 68 2
f 2 68 69
f 2 69 37
f 37 69 70
f 37 70 58
f 67 71 36
f 36 71 72
f 36 72 34
f 34 72 73
f 34 73 32
f 32 73 74
f 32 74 30
f 30 74 75
f 6 8 60
f 60 8 10
f 60 10 76
f 76 10 12
f 76 12 77
f 77 12 14
f 77 14 78
f 78 14 16
f 78 16 79
f 79 16 18
f 79 18 80
f 80 18 20
f 80 20 81
f 81 20 22
f 81 22 82
f 82 22 24
f 82 24 83
f 83 24 26
f 83 26 75
f 75 26 28
f 75 28 30
f 4 84 85
f 85 86 4
f 4 86 87
f 4 87 3
f 87 88 3
f 3 88 89
f 3 89 5
f 5 89 90
f 5 90 7
f 7 90 9
f 9 90 91
f 9 91 11
f 11 91 92
f 11 92 13
f 13 92 93
f 13 93 15
f 15 93 94
f 15 94 17
f 38 95 96
f 96 97 38
f 38 97 98
f 38 98 4
f 4 98 99
f 4 99 84
f 17 94 19
f 19 94 100
f 19 100 21
f 21 100 101
f 21 101 23
f 23 101 102
f 23 102 25
f 25 102 27
f 27 102 103
f 27 103 29
f 29 103 104
f 29 104 31
f 31 104 105
f 31 105 33
f 33 105 106
f 33 106 35
f 35 106 107
f 35 107 38
f 38 107 108
f 38 108 95
f 109 110 80
f 80 110 79
f 110 111 79
f 79 111 112
f 79 112 78
f 78 112 113
f 78 113 77
f 77 113 114
f 77 114 76
f 76 114 115
f 76 115 60
f 60 115 116
f 60 116 61
f 61 116 117
f 61 117 62
f 62 117 118
f 62 118 63
f 63 118 119
f 63 119 64
f 64 119 120
f 64 120 65
f 65 120 121
f 65 121 68
f 68 121 122
f 68 122 69
f 69 122 123
f 69 123 70
f 70 123 124
f 70 124 58
f 58 124 125
f 58 125 59
f 59 125 126
f 59 126 66
f 66 126 127
f 66 127 67
f 67 127 128
f 67 128 71
f 71 128 129
f 71 129 72
f 72 129 130
f 72 130 73
f 73 130 131
f 73 131 74
f 74 131 132
f 74 132 75
f 75 132 133
f 75 133 83
f 83 133 134
f 83 134 82
f 82 134 109
f 82 109 81
f 81 109 80
f 135 117 136
f 136 117 116
f 136 116 137
f 137 116 115
f 137 115 138
f 139 125 140
f 140 125 124
f 140 124 141
f 141 124 123
f 141 123 142
f 143 129 144
f 144 129 128
f 144 128 145
f 145 128 127
f 145 127 139
f 139 127 126
f 139 126 125
f 123 122 142
f 142 122 121
f 142 121 146
f 146 121 120
f 146 120 147
f 147 120 119
f 147 119 135
f 135 119 118
f 135 118 117
f 148 133 149
f 149 133 132
f 149 132 150
f 150 132 131
f 150 131 143
f 143 131 130
f 143 130 129
f 115 114 138
f 138 114 113
f 138 113 151
f 151 113 112
f 151 112 152
f 152 112 111
f 152 111 153
f 153 111 110
f 153 110 154
f 154 110 109
f 154 109 148
f 148 109 134
f 148 134 133
f 155 156 99
f 99 156 157
f 99 157 84
f 84 157 158
f 84 158 85
f 85 158 159
f 85 159 86
f 86 159 160
f 86 160 87
f 87 160 161
f 87 161 88
f 88 161 162
f 88 162 89
f 89 162 163
f 89 163 90
f 90 163 164
f 90 164 91
f 91 164 165
f 91 165 92
f 92 165 166
f 92 166 93
f 93 166 167
f 93 167 94
f 94 167 168
f 94 168 100
f 100 168 169
f 100 169 101
f 101 169 170
f 101 170 102
f 102 170 171
f 102 171 103
f 103 171 172
f 103 172 104
f 104 172 173
f 104 173 105
f 105 173 174
f 105 174 106
f 106 174 175
f 106 175 107
f 107 175 176
f 107 176 108
f 108 176 177
f 108 177 95
f 95 177 178
f 95 178 96
f 96 178 179
f 96 179 97
f 97 179 180
f 97 180 98
f 98 180 155
f 98 155 99
f 156 181 182
f 183 160 184
f 184 160 159
f 184 159 185
f 185 159 158
f 185 158 182
f 182 158 157
f 182 157 156
f 186 172 187
f 187 172 171
f 187 171 188
f 188 171 170
f 188 170 189
f 190 176 191
f 191 176 175
f 191 175 192
f 192 175 174
f 192 174 186
f 186 174 173
f 186 173 172
f 156 155 181
f 181 155 180
f 181 180 193
f 193 180 179
f 193 179 194
f 194 179 178
f 194 178 190
f 190 178 177
f 190 177 176
f 195 164 196
f 196 164 163
f 196 163 197
f 197 163 162
f 197 162 183
f 183 162 161
f 183 161 160
f 170 169 189
f 189 169 168
f 189 168 198
f 198 168 167
f 198 167 199
f 199 167 166
f 199 166 195
f 195 166 165
f 195 165 164
f 151 152 198
f 198 152 153
f 198 153 189
f 189 153 154
f 189 154 188
f 188 154 148
f 188 148 187
f 187 148 149
f 187 149 186
f 186 149 150
f 186 150 192
f 192 150 143
f 192 143 191
f 191 143 144
f 191 144 190
f 190 144 145
f 190 145 194
f 194 145 139
f 194 139 193
f 193 139 140
f 193 140 181
f 181 140 141
f 181 141 182
f 182 141 142
f 182 142 185
f 185 142 146
f 185 146 184
f 184 146 147
f 184 147 183
f 183 147 135
f 183 135 197
f 197 135 136
f 197 136 196
f 196 136 137
f 196 137 195
f 195 137 138
f 195 138 199
f 199 138 151
f 199 151 198
f 200 46 201
f 201 46 45
f 201 45 202
f 202 45 40
f 202 40 203
f 203 40 39
f 203 39 204
f 204 39 57
f 204 57 205
f 205 57 56
f 205 56 206
f 206 56 55
f 206 55 207
f 207 55 44
f 207 44 208
f 208 44 43
f 208 43 209
f 209 43 51
f 209 51 210
f 210 51 50
f 210 50 211
f 211 50 49
f 211 49 212
f 212 49 42
f 212 42 213
f 213 42 41
f 213 41 214
f 214 41 54
f 214 54 215
f 215 54 53
f 215 53 216
f 216 53 52
f 216 52 217
f 217 52 48
f 217 48 218
f 218 48 47
f 218 47 200
f 200 47 46
f 200 201 219
f 216 217 219
f 219 217 218
f 219 218 200
f 213 214 219
f 219 214 215
f 219 215 216
f 210 211 219
f 219 211 212
f 219 212 213
f 207 208 219
f 219 208 209
f 219 209 210
f 204 205 219
f 219 205 206
f 219 206 207
f 201 202 219
f 219 202 203
f 219 203 204
