# OBJ file converted from STL
# Original file: link_1.STL
# Vertices: 117
# Faces: 234
# Generated by convert_meshes_stl_to_obj.py

v -0.014947 -0.001264 0.000000
v -0.029748 0.003884 0.000000
v -0.014293 0.004552 0.000000
v -0.027448 0.012107 0.000000
v -0.011463 0.009675 0.000000
v -0.022925 0.019350 0.000000
v -0.006888 0.013325 0.000000
v 0.105904 0.156009 0.000000
v 0.100270 0.165309 0.000000
v 0.110384 0.161317 0.000000
v 0.106650 0.170984 0.000000
v 0.116409 0.164772 0.000000
v 0.114371 0.174631 0.000000
v 0.123253 0.165958 0.000000
v 0.122806 0.175956 0.000000
v 0.130090 0.164733 0.000000
v 0.131273 0.174851 0.000000
v 0.136095 0.161242 0.000000
v -0.009675 -0.011463 0.000000
v -0.022416 -0.019938 0.000000
v -0.013325 -0.006888 0.000000
v -0.027125 -0.012815 0.000000
v -0.029637 -0.004654 0.000000
v 0.022925 -0.019350 0.000000
v 0.016545 -0.025025 0.000000
v 0.006888 -0.013325 0.000000
v 0.008825 -0.028673 0.000000
v 0.001264 -0.014947 0.000000
v 0.000389 -0.029997 0.000000
v -0.004552 -0.014293 0.000000
v -0.008078 -0.028892 0.000000
v -0.015890 -0.025446 0.000000
v 0.011463 -0.009675 0.000000
v 0.014293 -0.004552 0.000000
v 0.146121 0.126609 0.000000
v 0.014947 0.001264 0.000000
v 0.013325 0.006888 0.000000
v -0.001264 0.014947 0.000000
v 0.004552 0.014293 0.000000
v 0.009675 0.011463 0.000000
v 0.103509 0.149489 0.000000
v 0.103489 0.142543 0.000000
v 0.105846 0.136009 0.000000
v 0.110295 0.130675 0.000000
v 0.116301 0.127185 0.000000
v 0.139086 0.171404 0.000000
v 0.145611 0.165897 0.000000
v 0.140545 0.155908 0.000000
v 0.150320 0.158774 0.000000
v 0.142901 0.149375 0.000000
v 0.152832 0.150613 0.000000
v 0.142881 0.142429 0.000000
v 0.152943 0.142075 0.000000
v 0.140487 0.135908 0.000000
v 0.150644 0.133851 0.000000
v 0.136007 0.130601 0.000000
v 0.129981 0.127145 0.000000
v 0.123137 0.125959 0.000000
v 0.013325 0.006888 0.020000
v 0.014947 0.001264 0.020000
v 0.146121 0.126609 0.020000
v 0.100270 0.165309 0.020000
v 0.004552 0.014293 0.020000
v 0.009675 0.011463 0.020000
v 0.022925 -0.019350 0.020000
v -0.014293 0.004552 0.020000
v -0.011463 0.009675 0.020000
v -0.022925 0.019350 0.020000
v -0.006888 0.013325 0.020000
v -0.001264 0.014947 0.020000
v -0.027448 0.012107 0.020000
v -0.029748 0.003884 0.020000
v -0.014947 -0.001264 0.020000
v -0.029637 -0.004654 0.020000
v -0.013325 -0.006888 0.020000
v 0.152943 0.142075 0.020000
v 0.152832 0.150613 0.020000
v 0.150320 0.158774 0.020000
v 0.014293 -0.004552 0.020000
v 0.011463 -0.009675 0.020000
v 0.016545 -0.025025 0.020000
v 0.006888 -0.013325 0.020000
v 0.008825 -0.028673 0.020000
v 0.001264 -0.014947 0.020000
v 0.145611 0.165897 0.020000
v 0.139086 0.171404 0.020000
v 0.131273 0.174851 0.020000
v 0.122806 0.175956 0.020000
v 0.114371 0.174631 0.020000
v 0.106650 0.170984 0.020000
v -0.027125 -0.012815 0.020000
v -0.022416 -0.019938 0.020000
v -0.009675 -0.011463 0.020000
v -0.015890 -0.025446 0.020000
v -0.004552 -0.014293 0.020000
v -0.008078 -0.028892 0.020000
v 0.000389 -0.029997 0.020000
v 0.150644 0.133851 0.020000
v 0.116301 0.127185 -0.021000
v 0.123137 0.125959 -0.021000
v 0.129981 0.127145 -0.021000
v 0.136007 0.130601 -0.021000
v 0.140487 0.135908 -0.021000
v 0.142881 0.142429 -0.021000
v 0.142901 0.149375 -0.021000
v 0.140545 0.155908 -0.021000
v 0.136095 0.161242 -0.021000
v 0.130090 0.164733 -0.021000
v 0.123253 0.165958 -0.021000
v 0.116409 0.164772 -0.021000
v 0.110384 0.161317 -0.021000
v 0.105904 0.156009 -0.021000
v 0.103509 0.149489 -0.021000
v 0.103489 0.142543 -0.021000
v 0.105846 0.136009 -0.021000
v 0.110295 0.130675 -0.021000
v 0.123195 0.145959 -0.021000

f 1 2 3
f 3 2 4
f 3 4 5
f 5 4 6
f 5 6 7
f 8 9 10
f 10 9 11
f 10 11 12
f 12 11 13
f 12 13 14
f 14 13 15
f 14 15 16
f 16 15 17
f 16 17 18
f 19 20 21
f 21 20 22
f 21 22 1
f 1 22 23
f 1 23 2
f 24 25 26
f 26 25 27
f 26 27 28
f 28 27 29
f 28 29 30
f 30 29 31
f 30 31 19
f 19 31 32
f 19 32 20
f 26 33 24
f 24 33 34
f 24 34 35
f 35 34 36
f 35 36 37
f 7 6 38
f 38 6 9
f 38 9 39
f 39 9 8
f 39 8 40
f 40 8 41
f 40 41 42
f 42 43 40
f 40 43 44
f 40 44 37
f 37 44 45
f 17 46 18
f 18 46 47
f 18 47 48
f 48 47 49
f 48 49 50
f 50 49 51
f 50 51 52
f 52 51 53
f 52 53 54
f 54 53 55
f 54 55 56
f 56 55 35
f 56 35 57
f 57 35 37
f 57 37 58
f 58 37 45
f 59 60 61
f 62 63 64
f 61 60 65
f 66 67 68
f 68 67 69
f 68 69 62
f 62 69 70
f 62 70 63
f 68 71 66
f 66 71 72
f 66 72 73
f 73 72 74
f 73 74 75
f 76 77 78
f 60 79 65
f 65 79 80
f 65 80 81
f 81 80 82
f 81 82 83
f 83 82 84
f 64 85 62
f 62 85 86
f 62 86 87
f 87 88 62
f 62 88 89
f 62 89 90
f 74 91 75
f 75 91 92
f 75 92 93
f 93 92 94
f 93 94 95
f 95 94 96
f 95 96 84
f 84 96 97
f 84 97 83
f 64 59 85
f 85 59 61
f 85 61 78
f 78 61 98
f 78 98 76
f 24 65 81
f 24 81 25
f 25 81 83
f 25 83 27
f 27 83 97
f 27 97 29
f 29 97 96
f 29 96 31
f 31 96 94
f 31 94 32
f 32 94 92
f 32 92 20
f 20 92 91
f 20 91 22
f 22 91 74
f 22 74 23
f 23 74 72
f 23 72 2
f 2 72 71
f 2 71 4
f 4 71 68
f 4 68 6
f 9 6 62
f 62 6 68
f 9 62 90
f 9 90 11
f 11 90 89
f 11 89 13
f 13 89 88
f 13 88 15
f 15 88 87
f 15 87 17
f 17 87 86
f 17 86 46
f 46 86 85
f 46 85 47
f 47 85 78
f 47 78 49
f 49 78 77
f 49 77 51
f 51 77 76
f 51 76 53
f 53 76 98
f 53 98 55
f 55 98 61
f 55 61 35
f 24 35 65
f 65 35 61
f 19 93 30
f 30 93 95
f 30 95 28
f 28 95 84
f 28 84 26
f 26 84 82
f 26 82 33
f 33 82 80
f 33 80 34
f 34 80 79
f 34 79 36
f 36 79 60
f 36 60 37
f 37 60 59
f 37 59 40
f 40 59 64
f 40 64 39
f 39 64 63
f 39 63 38
f 38 63 70
f 38 70 7
f 7 70 69
f 7 69 5
f 5 69 67
f 5 67 3
f 3 67 66
f 3 66 1
f 1 66 73
f 1 73 21
f 21 73 75
f 21 75 19
f 19 75 93
f 44 99 45
f 45 99 100
f 45 100 58
f 58 100 101
f 58 101 57
f 57 101 102
f 57 102 56
f 56 102 103
f 56 103 54
f 54 103 104
f 54 104 52
f 52 104 105
f 52 105 50
f 50 105 106
f 50 106 48
f 48 106 107
f 48 107 18
f 18 107 108
f 18 108 16
f 16 108 109
f 16 109 14
f 14 109 110
f 14 110 12
f 12 110 111
f 12 111 10
f 10 111 112
f 10 112 8
f 8 112 113
f 8 113 41
f 41 113 114
f 41 114 42
f 42 114 115
f 42 115 43
f 43 115 116
f 43 116 44
f 44 116 99
f 109 108 117
f 117 108 107
f 117 107 106
f 112 111 117
f 117 111 110
f 117 110 109
f 115 114 117
f 117 114 113
f 117 113 112
f 100 99 117
f 117 99 116
f 117 116 115
f 103 102 117
f 117 102 101
f 117 101 100
f 106 105 117
f 117 105 104
f 117 104 103
