# OBJ file converted from STL
# Original file: link_5.STL
# Vertices: 186
# Faces: 372
# Generated by convert_meshes_stl_to_obj.py

v -0.046206 0.025643 -0.040500
v -0.043211 0.025832 -0.040500
v -0.043167 0.025118 -0.046842
v -0.046161 0.024930 -0.046842
v -0.043034 0.023015 -0.052866
v -0.046028 0.022826 -0.052866
v -0.042820 0.019626 -0.058269
v -0.045814 0.019437 -0.058269
v -0.042536 0.015122 -0.062782
v -0.045530 0.014933 -0.062782
v -0.042196 0.009729 -0.066178
v -0.045190 0.009540 -0.066178
v -0.041817 0.003717 -0.068285
v -0.044811 0.003528 -0.068285
v -0.041418 -0.002612 -0.069000
v -0.044412 -0.002801 -0.069000
v -0.041019 -0.008941 -0.068285
v -0.044013 -0.009130 -0.068285
v -0.040639 -0.014953 -0.066178
v -0.043633 -0.015142 -0.066178
v -0.040299 -0.020346 -0.062782
v -0.043293 -0.020535 -0.062782
v -0.040015 -0.024850 -0.058269
v -0.043009 -0.025039 -0.058269
v -0.039802 -0.028239 -0.052866
v -0.042796 -0.028427 -0.052866
v -0.039669 -0.030342 -0.046842
v -0.042663 -0.030531 -0.046842
v -0.039624 -0.031055 -0.040500
v -0.042618 -0.031244 -0.040500
v -0.044412 -0.002801 -0.023000
v -0.041418 -0.002612 -0.023000
v -0.044101 -0.007721 -0.023709
v -0.041107 -0.007533 -0.023709
v -0.043816 -0.012243 -0.025778
v -0.040822 -0.012054 -0.025778
v -0.043579 -0.016000 -0.029040
v -0.040585 -0.015811 -0.029040
v -0.043410 -0.018688 -0.033230
v -0.040416 -0.018499 -0.033230
v -0.043322 -0.020088 -0.038009
v -0.040327 -0.019900 -0.038009
v -0.043322 -0.020088 -0.042991
v -0.040327 -0.019900 -0.042991
v -0.043410 -0.018688 -0.047770
v -0.040416 -0.018499 -0.047770
v -0.043579 -0.016000 -0.051960
v -0.040585 -0.015811 -0.051960
v -0.043816 -0.012243 -0.055222
v -0.040822 -0.012054 -0.055222
v -0.044101 -0.007721 -0.057291
v -0.041107 -0.007533 -0.057291
v -0.044412 -0.002801 -0.058000
v -0.041418 -0.002612 -0.058000
v -0.044722 0.002120 -0.057291
v -0.041728 0.002309 -0.057291
v -0.045007 0.006642 -0.055222
v -0.042013 0.006830 -0.055222
v -0.045244 0.010399 -0.051960
v -0.042250 0.010587 -0.051960
v -0.045414 0.013086 -0.047770
v -0.042420 0.013275 -0.047770
v -0.045502 0.014487 -0.042991
v -0.042508 0.014676 -0.042991
v -0.045502 0.014487 -0.038009
v -0.042508 0.014676 -0.038009
v -0.045414 0.013086 -0.033230
v -0.042420 0.013275 -0.033230
v -0.045244 0.010399 -0.029040
v -0.042250 0.010587 -0.029040
v -0.045007 0.006642 -0.025778
v -0.042013 0.006830 -0.025778
v -0.044722 0.002120 -0.023709
v -0.041728 0.002309 -0.023709
v -0.046206 0.025643 -0.004000
v -0.042618 -0.031244 -0.004000
v 0.046028 -0.022826 -0.028134
v 0.046206 -0.025643 -0.004000
v 0.046161 -0.024930 -0.034158
v 0.046206 -0.025643 -0.040500
v 0.042618 0.031244 -0.040500
v 0.042618 0.031244 -0.004000
v 0.042663 0.030531 -0.034158
v 0.042796 0.028427 -0.028134
v 0.043633 0.015142 -0.014822
v 0.043293 0.020535 -0.018218
v 0.043009 0.025039 -0.022731
v 0.045814 -0.019437 -0.022731
v 0.045530 -0.014933 -0.018218
v 0.045190 -0.009540 -0.014822
v 0.044811 -0.003528 -0.012715
v 0.044412 0.002801 -0.012000
v 0.044013 0.009130 -0.012715
v 0.039669 0.030342 -0.046842
v 0.039624 0.031055 -0.040500
v 0.091071 -0.022097 -0.046842
v 0.091116 -0.022810 -0.040500
v 0.091071 -0.022097 -0.034158
v 0.090939 -0.019994 -0.028134
v 0.090725 -0.016605 -0.022731
v 0.090441 -0.012101 -0.018218
v 0.090101 -0.006708 -0.014822
v 0.089722 -0.000696 -0.012715
v 0.089323 0.005633 -0.012000
v 0.088923 0.011962 -0.012715
v 0.088544 0.017974 -0.014822
v 0.088204 0.023367 -0.018218
v 0.087920 0.027871 -0.022731
v 0.087706 0.031260 -0.028134
v 0.087574 0.033363 -0.034158
v 0.087529 0.034077 -0.040500
v 0.087574 0.033363 -0.046842
v 0.087706 0.031260 -0.052866
v 0.039802 0.028239 -0.052866
v 0.087920 0.027871 -0.058269
v 0.040015 0.024850 -0.058269
v 0.088204 0.023367 -0.062782
v 0.040299 0.020346 -0.062782
v 0.088544 0.017974 -0.066178
v 0.040639 0.014953 -0.066178
v 0.088923 0.011962 -0.068285
v 0.041019 0.008941 -0.068285
v 0.089323 0.005633 -0.069000
v 0.041418 0.002612 -0.069000
v 0.089722 -0.000696 -0.068285
v 0.041817 -0.003717 -0.068285
v 0.090101 -0.006708 -0.066178
v 0.042196 -0.009729 -0.066178
v 0.090441 -0.012101 -0.062782
v 0.042536 -0.015122 -0.062782
v 0.090725 -0.016605 -0.058269
v 0.042820 -0.019626 -0.058269
v 0.090939 -0.019994 -0.052866
v 0.043034 -0.023015 -0.052866
v 0.043167 -0.025118 -0.046842
v 0.043211 -0.025832 -0.040500
v 0.043211 -0.025832 -0.012000
v -0.039624 -0.031055 -0.012000
v -0.016448 -0.005977 -0.004000
v -0.017465 -0.001101 -0.004000
v -0.015288 0.008516 -0.004000
v -0.012270 0.012478 -0.004000
v 0.006253 0.016345 -0.004000
v 0.010605 0.013921 -0.004000
v -0.017068 0.003864 -0.004000
v -0.008257 0.015429 -0.004000
v -0.003576 0.017131 -0.004000
v 0.001395 0.017444 -0.004000
v 0.014097 0.010369 -0.004000
v 0.016448 0.005977 -0.004000
v 0.017465 0.001101 -0.004000
v 0.017068 -0.003864 -0.004000
v 0.015288 -0.008516 -0.004000
v 0.012270 -0.012478 -0.004000
v -0.006253 -0.016345 -0.004000
v -0.010605 -0.013921 -0.004000
v -0.014097 -0.010369 -0.004000
v 0.008257 -0.015429 -0.004000
v 0.003576 -0.017131 -0.004000
v -0.001395 -0.017444 -0.004000
v -0.043211 0.025832 -0.012000
v 0.039624 0.031055 -0.012000
v 0.017465 0.001101 -0.005000
v 0.017068 -0.003864 -0.005000
v 0.015288 -0.008516 -0.005000
v 0.012270 -0.012478 -0.005000
v 0.008257 -0.015429 -0.005000
v 0.003576 -0.017131 -0.005000
v -0.001395 -0.017444 -0.005000
v -0.006253 -0.016345 -0.005000
v -0.010605 -0.013921 -0.005000
v -0.014097 -0.010369 -0.005000
v -0.016448 -0.005977 -0.005000
v -0.017465 -0.001101 -0.005000
v -0.017068 0.003864 -0.005000
v -0.015288 0.008516 -0.005000
v -0.012270 0.012478 -0.005000
v -0.008257 0.015429 -0.005000
v -0.003576 0.017131 -0.005000
v 0.001395 0.017444 -0.005000
v 0.006253 0.016345 -0.005000
v 0.010605 0.013921 -0.005000
v 0.014097 0.010369 -0.005000
v 0.016448 0.005977 -0.005000
v -0.000000 0.000000 -0.005000
v 0.089323 0.005633 -0.040500

f 1 2 3
f 1 3 4
f 4 3 5
f 4 5 6
f 6 5 7
f 6 7 8
f 8 7 9
f 8 9 10
f 10 9 11
f 10 11 12
f 12 11 13
f 12 13 14
f 14 13 15
f 14 15 16
f 16 15 17
f 16 17 18
f 18 17 19
f 18 19 20
f 20 19 21
f 20 21 22
f 22 21 23
f 22 23 24
f 24 23 25
f 24 25 26
f 26 25 27
f 26 27 28
f 28 27 29
f 28 29 30
f 31 32 33
f 33 32 34
f 33 34 35
f 35 34 36
f 35 36 37
f 37 36 38
f 37 38 39
f 39 38 40
f 39 40 41
f 41 40 42
f 41 42 43
f 43 42 44
f 43 44 45
f 45 44 46
f 45 46 47
f 47 46 48
f 47 48 49
f 49 48 50
f 49 50 51
f 51 50 52
f 51 52 53
f 53 52 54
f 53 54 55
f 55 54 56
f 55 56 57
f 57 56 58
f 57 58 59
f 59 58 60
f 59 60 61
f 61 60 62
f 61 62 63
f 63 62 64
f 63 64 65
f 65 64 66
f 65 66 67
f 67 66 68
f 67 68 69
f 69 68 70
f 69 70 71
f 71 70 72
f 71 72 73
f 73 72 74
f 73 74 31
f 31 74 32
f 51 53 16
f 75 31 76
f 76 31 33
f 76 33 35
f 16 53 14
f 14 53 55
f 14 55 12
f 12 55 57
f 12 57 10
f 69 71 75
f 75 71 73
f 75 73 31
f 10 57 8
f 8 57 59
f 8 59 6
f 6 59 61
f 6 61 4
f 4 61 63
f 4 63 1
f 1 63 65
f 1 65 75
f 75 65 67
f 75 67 69
f 16 18 51
f 51 18 20
f 51 20 49
f 49 20 22
f 49 22 47
f 47 22 24
f 47 24 45
f 45 24 26
f 45 26 43
f 43 26 28
f 43 28 41
f 41 28 30
f 41 30 39
f 39 30 76
f 39 76 37
f 37 76 35
f 77 78 79
f 79 78 80
f 81 82 83
f 83 82 84
f 85 86 82
f 82 86 87
f 82 87 84
f 77 88 78
f 78 88 89
f 78 89 90
f 90 91 78
f 78 91 92
f 78 92 82
f 82 92 93
f 82 93 85
f 94 95 81
f 96 97 80
f 80 97 98
f 80 98 79
f 79 98 99
f 79 99 77
f 77 99 100
f 77 100 88
f 88 100 101
f 88 101 89
f 89 101 102
f 89 102 90
f 90 102 103
f 90 103 91
f 91 103 104
f 91 104 92
f 92 104 105
f 92 105 93
f 93 105 106
f 93 106 85
f 85 106 107
f 85 107 86
f 86 107 108
f 86 108 87
f 87 108 109
f 87 109 84
f 84 109 110
f 84 110 83
f 83 110 111
f 83 111 81
f 81 111 112
f 81 112 94
f 94 112 113
f 94 113 114
f 114 113 115
f 114 115 116
f 116 115 117
f 116 117 118
f 118 117 119
f 118 119 120
f 120 119 121
f 120 121 122
f 122 121 123
f 122 123 124
f 124 123 125
f 124 125 126
f 126 125 127
f 126 127 128
f 128 127 129
f 128 129 130
f 130 129 131
f 130 131 132
f 132 131 133
f 132 133 134
f 134 133 96
f 134 96 135
f 135 96 80
f 135 80 136
f 136 80 137
f 137 80 78
f 137 78 138
f 138 78 76
f 138 76 29
f 29 76 30
f 139 140 76
f 141 142 75
f 82 143 144
f 76 140 75
f 75 140 145
f 75 145 141
f 142 146 75
f 75 146 147
f 75 147 82
f 82 147 148
f 82 148 143
f 144 149 82
f 82 149 150
f 82 150 78
f 78 150 151
f 151 152 78
f 78 152 153
f 78 153 154
f 155 156 76
f 76 156 157
f 76 157 139
f 154 158 78
f 78 158 159
f 78 159 76
f 76 159 160
f 76 160 155
f 2 1 161
f 161 1 75
f 161 75 162
f 162 75 82
f 162 82 95
f 95 82 81
f 162 137 161
f 161 137 138
f 40 38 138
f 138 38 36
f 36 34 138
f 138 34 32
f 138 32 161
f 161 32 74
f 161 74 72
f 56 11 58
f 58 11 9
f 58 9 60
f 60 9 7
f 60 7 62
f 62 7 5
f 62 5 64
f 64 5 3
f 64 3 66
f 66 3 2
f 66 2 68
f 68 2 161
f 68 161 70
f 70 161 72
f 40 138 42
f 42 138 29
f 42 29 44
f 44 29 27
f 44 27 46
f 46 27 25
f 46 25 48
f 48 25 23
f 48 23 50
f 23 21 50
f 50 21 19
f 50 19 52
f 52 19 17
f 52 17 54
f 54 17 15
f 54 15 56
f 56 15 13
f 56 13 11
f 137 162 136
f 136 162 95
f 136 95 135
f 126 128 95
f 95 128 130
f 126 95 124
f 124 95 94
f 124 94 114
f 130 132 95
f 95 132 134
f 95 134 135
f 114 116 124
f 124 116 118
f 124 118 122
f 122 118 120
f 151 163 152
f 152 163 164
f 152 164 153
f 153 164 165
f 153 165 154
f 154 165 166
f 154 166 158
f 158 166 167
f 158 167 159
f 159 167 168
f 159 168 160
f 160 168 169
f 160 169 155
f 155 169 170
f 155 170 156
f 156 170 171
f 156 171 157
f 157 171 172
f 157 172 139
f 139 172 173
f 139 173 140
f 140 173 174
f 140 174 145
f 145 174 175
f 145 175 141
f 141 175 176
f 141 176 142
f 142 176 177
f 142 177 146
f 146 177 178
f 146 178 147
f 147 178 179
f 147 179 148
f 148 179 180
f 148 180 143
f 143 180 181
f 143 181 144
f 144 181 182
f 144 182 149
f 149 182 183
f 149 183 150
f 150 183 184
f 150 184 151
f 151 184 163
f 174 173 185
f 177 176 185
f 185 176 175
f 185 175 174
f 180 179 185
f 185 179 178
f 185 178 177
f 183 182 185
f 185 182 181
f 185 181 180
f 164 163 185
f 185 163 184
f 185 184 183
f 167 166 185
f 185 166 165
f 185 165 164
f 170 169 185
f 185 169 168
f 185 168 167
f 173 172 185
f 185 172 171
f 185 171 170
f 123 121 186
f 129 127 186
f 186 127 125
f 186 125 123
f 96 133 186
f 186 133 131
f 186 131 129
f 99 98 186
f 186 98 97
f 186 97 96
f 102 101 186
f 186 101 100
f 186 100 99
f 105 104 186
f 186 104 103
f 186 103 102
f 108 107 186
f 186 107 106
f 186 106 105
f 111 110 186
f 186 110 109
f 186 109 108
f 115 113 186
f 186 113 112
f 186 112 111
f 121 119 186
f 186 119 117
f 186 117 115
